<mxfile host="app.diagrams.net" modified="2024-03-21T09:38:23.628Z" agent="Mozilla/5.0 (Windows NT 10.0; Win64; x64; rv:123.0) Gecko/20100101 Firefox/123.0" etag="XdoaraecbOeY_ngi4THl" version="24.0.7" type="device">
  <diagram name="Pagina-1" id="RYX6B4nTwfwSjVpBs2xq">
    <mxGraphModel dx="724" dy="385" grid="1" gridSize="10" guides="1" tooltips="1" connect="1" arrows="1" fold="1" page="1" pageScale="1" pageWidth="827" pageHeight="1169" math="0" shadow="0">
      <root>
        <mxCell id="0" />
        <mxCell id="1" parent="0" />
        <mxCell id="d7VdnmhecfoW653WV-10-6" style="edgeStyle=orthogonalEdgeStyle;rounded=0;orthogonalLoop=1;jettySize=auto;html=1;exitX=0.5;exitY=1;exitDx=0;exitDy=0;entryX=0.5;entryY=0;entryDx=0;entryDy=0;" edge="1" parent="1" source="d7VdnmhecfoW653WV-10-1" target="d7VdnmhecfoW653WV-10-4">
          <mxGeometry relative="1" as="geometry" />
        </mxCell>
        <mxCell id="d7VdnmhecfoW653WV-10-7" style="edgeStyle=orthogonalEdgeStyle;rounded=0;orthogonalLoop=1;jettySize=auto;html=1;exitX=0.5;exitY=1;exitDx=0;exitDy=0;entryX=0.5;entryY=0;entryDx=0;entryDy=0;" edge="1" parent="1" source="d7VdnmhecfoW653WV-10-1" target="d7VdnmhecfoW653WV-10-2">
          <mxGeometry relative="1" as="geometry" />
        </mxCell>
        <mxCell id="d7VdnmhecfoW653WV-10-8" style="edgeStyle=orthogonalEdgeStyle;rounded=0;orthogonalLoop=1;jettySize=auto;html=1;exitX=0.5;exitY=1;exitDx=0;exitDy=0;entryX=0.5;entryY=0;entryDx=0;entryDy=0;" edge="1" parent="1" source="d7VdnmhecfoW653WV-10-1" target="d7VdnmhecfoW653WV-10-3">
          <mxGeometry relative="1" as="geometry" />
        </mxCell>
        <mxCell id="d7VdnmhecfoW653WV-10-9" style="edgeStyle=orthogonalEdgeStyle;rounded=0;orthogonalLoop=1;jettySize=auto;html=1;exitX=0.5;exitY=1;exitDx=0;exitDy=0;entryX=0.5;entryY=0;entryDx=0;entryDy=0;" edge="1" parent="1" source="d7VdnmhecfoW653WV-10-1" target="d7VdnmhecfoW653WV-10-5">
          <mxGeometry relative="1" as="geometry" />
        </mxCell>
        <mxCell id="d7VdnmhecfoW653WV-10-1" value="&lt;font style=&quot;font-size: 18px;&quot;&gt;Home&lt;/font&gt;" style="rounded=0;whiteSpace=wrap;html=1;" vertex="1" parent="1">
          <mxGeometry x="410" y="140" width="120" height="60" as="geometry" />
        </mxCell>
        <mxCell id="d7VdnmhecfoW653WV-10-22" style="edgeStyle=orthogonalEdgeStyle;rounded=0;orthogonalLoop=1;jettySize=auto;html=1;exitX=0.5;exitY=1;exitDx=0;exitDy=0;entryX=0.5;entryY=0;entryDx=0;entryDy=0;" edge="1" parent="1" source="d7VdnmhecfoW653WV-10-2" target="d7VdnmhecfoW653WV-10-19">
          <mxGeometry relative="1" as="geometry">
            <Array as="points">
              <mxPoint x="380" y="430" />
              <mxPoint x="220" y="430" />
            </Array>
          </mxGeometry>
        </mxCell>
        <mxCell id="d7VdnmhecfoW653WV-10-2" value="Carrello" style="rounded=0;whiteSpace=wrap;html=1;fontSize=18;" vertex="1" parent="1">
          <mxGeometry x="320" y="250" width="120" height="60" as="geometry" />
        </mxCell>
        <mxCell id="d7VdnmhecfoW653WV-10-17" style="edgeStyle=orthogonalEdgeStyle;rounded=0;orthogonalLoop=1;jettySize=auto;html=1;exitX=0.5;exitY=1;exitDx=0;exitDy=0;entryX=0.5;entryY=0;entryDx=0;entryDy=0;" edge="1" parent="1" source="d7VdnmhecfoW653WV-10-3" target="d7VdnmhecfoW653WV-10-15">
          <mxGeometry relative="1" as="geometry" />
        </mxCell>
        <mxCell id="d7VdnmhecfoW653WV-10-18" style="edgeStyle=orthogonalEdgeStyle;rounded=0;orthogonalLoop=1;jettySize=auto;html=1;exitX=0.5;exitY=1;exitDx=0;exitDy=0;entryX=0.5;entryY=0;entryDx=0;entryDy=0;" edge="1" parent="1" source="d7VdnmhecfoW653WV-10-3" target="d7VdnmhecfoW653WV-10-16">
          <mxGeometry relative="1" as="geometry" />
        </mxCell>
        <mxCell id="d7VdnmhecfoW653WV-10-3" value="Profilo" style="rounded=0;whiteSpace=wrap;html=1;fontSize=18;" vertex="1" parent="1">
          <mxGeometry x="480" y="250" width="120" height="60" as="geometry" />
        </mxCell>
        <mxCell id="d7VdnmhecfoW653WV-10-12" style="edgeStyle=orthogonalEdgeStyle;rounded=0;orthogonalLoop=1;jettySize=auto;html=1;exitX=0.5;exitY=1;exitDx=0;exitDy=0;entryX=0.5;entryY=0;entryDx=0;entryDy=0;" edge="1" parent="1" source="d7VdnmhecfoW653WV-10-4" target="d7VdnmhecfoW653WV-10-11">
          <mxGeometry relative="1" as="geometry" />
        </mxCell>
        <mxCell id="d7VdnmhecfoW653WV-10-14" style="edgeStyle=orthogonalEdgeStyle;rounded=0;orthogonalLoop=1;jettySize=auto;html=1;exitX=0.5;exitY=1;exitDx=0;exitDy=0;entryX=0.5;entryY=0;entryDx=0;entryDy=0;" edge="1" parent="1" source="d7VdnmhecfoW653WV-10-4" target="d7VdnmhecfoW653WV-10-10">
          <mxGeometry relative="1" as="geometry" />
        </mxCell>
        <mxCell id="d7VdnmhecfoW653WV-10-4" value="Ricerca" style="rounded=0;whiteSpace=wrap;html=1;fontSize=18;" vertex="1" parent="1">
          <mxGeometry x="160" y="250" width="120" height="60" as="geometry" />
        </mxCell>
        <mxCell id="d7VdnmhecfoW653WV-10-5" value="ContactUs" style="rounded=0;whiteSpace=wrap;html=1;fontSize=18;" vertex="1" parent="1">
          <mxGeometry x="640" y="250" width="120" height="60" as="geometry" />
        </mxCell>
        <mxCell id="d7VdnmhecfoW653WV-10-21" style="edgeStyle=orthogonalEdgeStyle;rounded=0;orthogonalLoop=1;jettySize=auto;html=1;exitX=0.5;exitY=1;exitDx=0;exitDy=0;" edge="1" parent="1" source="d7VdnmhecfoW653WV-10-10">
          <mxGeometry relative="1" as="geometry">
            <mxPoint x="220" y="450" as="targetPoint" />
          </mxGeometry>
        </mxCell>
        <mxCell id="d7VdnmhecfoW653WV-10-10" value="Ricerca filtrata" style="rounded=0;whiteSpace=wrap;html=1;fontSize=17;" vertex="1" parent="1">
          <mxGeometry x="240" y="350" width="120" height="60" as="geometry" />
        </mxCell>
        <mxCell id="d7VdnmhecfoW653WV-10-20" style="edgeStyle=orthogonalEdgeStyle;rounded=0;orthogonalLoop=1;jettySize=auto;html=1;exitX=0.5;exitY=1;exitDx=0;exitDy=0;entryX=0.5;entryY=0;entryDx=0;entryDy=0;" edge="1" parent="1" source="d7VdnmhecfoW653WV-10-11" target="d7VdnmhecfoW653WV-10-19">
          <mxGeometry relative="1" as="geometry" />
        </mxCell>
        <mxCell id="d7VdnmhecfoW653WV-10-11" value="Search bar" style="rounded=0;whiteSpace=wrap;html=1;fontSize=17;" vertex="1" parent="1">
          <mxGeometry x="80" y="350" width="120" height="60" as="geometry" />
        </mxCell>
        <mxCell id="d7VdnmhecfoW653WV-10-15" value="Dati utente" style="rounded=0;whiteSpace=wrap;html=1;fontSize=18;" vertex="1" parent="1">
          <mxGeometry x="400" y="350" width="120" height="60" as="geometry" />
        </mxCell>
        <mxCell id="d7VdnmhecfoW653WV-10-16" value="Pet Personali" style="rounded=0;whiteSpace=wrap;html=1;fontSize=18;" vertex="1" parent="1">
          <mxGeometry x="560" y="350" width="120" height="60" as="geometry" />
        </mxCell>
        <mxCell id="d7VdnmhecfoW653WV-10-19" value="&lt;font style=&quot;font-size: 18px;&quot;&gt;Prodotti&lt;/font&gt;" style="rounded=0;whiteSpace=wrap;html=1;" vertex="1" parent="1">
          <mxGeometry x="160" y="450" width="120" height="60" as="geometry" />
        </mxCell>
      </root>
    </mxGraphModel>
  </diagram>
</mxfile>
